<?xml version="1.0" standalone="no"?>
<!DOCTYPE svg PUBLIC "-//W3C//DTD SVG 20010904//EN"
 "http://www.w3.org/TR/2001/REC-SVG-20010904/DTD/svg10.dtd">
<svg version="1.0" xmlns="http://www.w3.org/2000/svg"
 width="300.000000pt" height="300.000000pt" viewBox="0 0 300.000000 300.000000"
 preserveAspectRatio="xMidYMid meet">
<metadata>
Created by potrace 1.10, written by Peter Selinger 2001-2011
</metadata>
<g transform="translate(0.000000,300.000000) scale(0.100000,-0.100000)"
fill="#000000" stroke="none">
<path d="M2210 1957 c-313 -181 -390 -223 -456 -249 -43 -16 -84 -26 -95 -23
-21 7 -25 35 -8 68 10 21 9 21 -10 -2 -28 -32 -29 -103 -1 -131 11 -11 16 -20
10 -20 -17 0 -49 38 -56 67 -4 15 -2 44 3 66 10 35 9 37 -5 24 -8 -9 -17 -37
-19 -64 -6 -62 22 -103 70 -103 24 0 37 -7 52 -30 66 -100 253 -138 380 -79
95 45 142 119 152 241 l6 71 -34 -6 c-19 -4 -47 -10 -64 -13 -27 -5 -26 -3 13
20 23 14 69 48 101 76 38 33 67 50 84 50 15 0 27 3 27 6 0 19 -44 74 -59 74
-9 0 -50 -19 -91 -43z m-15 -80 c-27 -23 -63 -56 -80 -73 -33 -33 -88 -64
-116 -64 -10 0 -31 -11 -46 -24 l-28 -24 23 -24 c29 -32 28 -56 -3 -64 -36 -9
-65 2 -110 40 l-39 35 29 16 c146 80 246 135 275 152 19 11 55 32 80 47 66 38
72 31 15 -17z m-35 -173 c0 -72 -20 -125 -66 -170 -101 -101 -306 -75 -369 47
-14 25 -13 26 35 41 47 15 50 15 55 -3 18 -55 110 -77 171 -40 34 20 56 70 52
111 -3 20 4 26 52 41 30 9 58 17 63 18 4 1 7 -20 7 -45z m-150 -8 c0 -18 -31
-29 -44 -16 -8 8 -7 14 4 20 22 14 40 12 40 -4z"/>
<path d="M669 1958 c-34 -38 -36 -48 -9 -48 11 0 62 -28 113 -63 50 -35 107
-70 125 -78 53 -23 36 -27 -35 -8 -37 10 -69 17 -71 14 -2 -2 -4 -31 -5 -63
-1 -93 20 -150 74 -204 125 -125 367 -112 470 25 20 27 49 57 66 67 43 26 66
81 61 142 -3 27 -10 54 -15 59 -7 7 -9 -7 -5 -40 2 -27 2 -61 -2 -75 -7 -29
-53 -86 -69 -86 -7 0 -2 8 11 18 13 10 25 33 28 53 5 31 2 41 -25 70 l-32 34
16 -33 c48 -98 -57 -63 -480 162 -88 47 -166 86 -173 86 -7 0 -26 -15 -43 -32z
m246 -111 c72 -39 175 -94 230 -121 54 -27 93 -52 85 -54 -8 -2 -32 -20 -52
-40 -21 -20 -40 -33 -44 -30 -3 4 4 11 15 18 29 15 26 44 -5 69 -32 25 -51 26
-76 4 -25 -23 -22 -50 8 -78 21 -19 23 -25 10 -25 -28 0 -56 37 -56 75 0 24
-8 41 -27 60 -15 14 -33 25 -39 25 -6 0 -21 12 -35 26 -13 15 -56 48 -94 74
-39 26 -77 56 -85 65 -14 16 -13 17 10 10 14 -4 84 -39 155 -78z m75 -185 c0
-108 115 -159 192 -85 15 15 28 33 28 40 0 16 9 16 65 2 41 -10 43 -13 35 -35
-32 -83 -120 -136 -225 -136 -125 0 -206 68 -226 191 -5 35 -8 69 -5 76 3 8
21 9 70 2 l66 -10 0 -45z m126 8 c25 -10 26 -12 11 -27 -13 -13 -19 -14 -31
-3 -14 11 -22 40 -12 40 3 0 17 -5 32 -10z"/>
<path d="M1460 1887 c0 -4 8 -20 18 -34 42 -65 -2 -253 -62 -269 -27 -6 -36
-24 -12 -24 23 0 68 42 85 81 l17 38 12 -44 c13 -48 48 -80 79 -72 15 3 14 6
-7 14 -14 6 -32 18 -39 27 -18 22 -27 155 -13 195 6 17 7 31 3 31 -5 0 -12
-10 -15 -22 -6 -21 -8 -19 -21 16 -12 36 -45 81 -45 63z"/>
<path d="M1375 1194 c-38 -9 -106 -33 -150 -54 -77 -37 -175 -111 -175 -132 0
-5 21 9 47 32 106 93 239 134 438 134 191 0 324 -35 423 -110 47 -36 51 -23 5
15 -56 47 -168 99 -248 116 -88 18 -249 18 -340 -1z"/>
<path d="M1336 1115 c-76 -19 -172 -71 -197 -106 -26 -37 -33 -80 -17 -102 12
-16 13 -13 10 23 -4 38 -1 45 41 84 66 64 141 87 298 93 154 6 260 -12 368
-63 41 -19 76 -32 78 -30 8 8 -141 75 -202 92 -84 23 -302 28 -379 9z"/>
</g>
</svg>
