<?xml version="1.0" standalone="no"?>
<!DOCTYPE svg PUBLIC "-//W3C//DTD SVG 20010904//EN"
 "http://www.w3.org/TR/2001/REC-SVG-20010904/DTD/svg10.dtd">
<svg version="1.0" xmlns="http://www.w3.org/2000/svg"
 width="300.000000pt" height="300.000000pt" viewBox="0 0 300.000000 300.000000"
 preserveAspectRatio="xMidYMid meet">
<metadata>
Created by potrace 1.10, written by Peter Selinger 2001-2011
</metadata>
<g transform="translate(0.000000,300.000000) scale(0.100000,-0.100000)"
fill="#000000" stroke="none">
<path d="M1033 2255 c-47 -28 -93 -108 -92 -159 0 -29 1 -28 23 19 49 105 158
160 250 125 36 -13 32 -4 -6 20 -48 29 -122 27 -175 -5z"/>
<path d="M1743 2239 c-55 -27 -55 -41 -1 -22 48 16 93 11 148 -17 46 -24 77
-58 106 -117 27 -56 33 -31 9 38 -19 54 -58 96 -110 120 -53 24 -100 24 -152
-2z"/>
<path d="M1126 1979 c-116 -91 -100 -398 24 -449 95 -40 183 133 150 296 -15
73 -41 126 -76 153 -34 27 -64 27 -98 0z m96 -66 c22 -20 23 -42 2 -71 -18
-26 -50 -28 -76 -5 -22 20 -23 51 -1 75 20 22 51 23 75 1z m-90 -108 c33 -28
65 -32 94 -10 10 8 22 15 27 15 4 0 7 -30 7 -67 0 -71 -22 -136 -53 -162 -54
-44 -117 51 -117 177 0 39 3 72 6 72 3 0 19 -11 36 -25z"/>
<path d="M1716 1979 c-108 -85 -103 -372 7 -440 39 -23 71 -18 109 18 90 86
81 338 -14 418 -36 31 -67 32 -102 4z m82 -71 c18 -18 14 -63 -8 -83 -45 -41
-110 18 -76 70 18 27 63 34 84 13z m58 -113 c9 -35 -4 -111 -26 -162 -33 -75
-91 -79 -127 -10 -17 34 -31 177 -17 177 5 -1 20 -7 34 -15 36 -20 55 -18 87
10 35 31 41 31 49 0z"/>
<path d="M2130 1486 c0 -8 13 -31 30 -49 l30 -34 -51 -69 c-136 -183 -294
-297 -472 -339 -82 -19 -230 -19 -320 1 -166 37 -330 145 -448 294 -64 81 -80
110 -60 110 6 0 20 18 31 40 23 45 19 50 -13 19 -37 -36 -118 -69 -172 -70
l-50 -1 35 -15 c23 -10 51 -13 85 -10 l50 6 50 -87 c34 -59 79 -116 140 -178
78 -78 103 -97 185 -137 159 -77 314 -96 466 -57 210 54 392 194 516 397 l50
81 37 -6 c20 -3 43 -6 51 -6 80 1 96 18 25 27 -49 7 -111 35 -162 74 -25 18
-33 21 -33 9z"/>
</g>
</svg>
