<?xml version="1.0" standalone="no"?>
<!DOCTYPE svg PUBLIC "-//W3C//DTD SVG 20010904//EN"
 "http://www.w3.org/TR/2001/REC-SVG-20010904/DTD/svg10.dtd">
<svg version="1.0" xmlns="http://www.w3.org/2000/svg"
 width="300.000000pt" height="300.000000pt" viewBox="0 0 300.000000 300.000000"
 preserveAspectRatio="xMidYMid meet">
<metadata>
Created by potrace 1.10, written by Peter Selinger 2001-2011
</metadata>
<g transform="translate(0.000000,300.000000) scale(0.100000,-0.100000)"
fill="#000000" stroke="none">
<path d="M1032 2169 c-118 -20 -276 -102 -318 -166 -18 -28 -14 -28 28 -4 18
11 74 32 123 47 74 22 111 27 205 28 117 1 153 -8 201 -51 14 -12 17 -12 23 2
3 9 1 26 -5 38 -10 19 -9 20 2 9 8 -7 19 -27 26 -45 11 -30 12 -29 9 25 -2 44
-8 64 -25 82 -39 42 -146 55 -269 35z m205 -52 c22 -22 9 -33 -22 -19 -14 7
-58 15 -98 19 -59 6 -67 8 -42 14 51 13 144 4 162 -14z m83 -35 c0 -7 -11 0
-25 16 -14 17 -25 33 -25 38 0 4 11 -3 25 -16 14 -13 25 -30 25 -38z"/>
<path d="M1720 2155 c-51 -16 -83 -42 -105 -86 -16 -30 -12 -55 6 -43 7 4 8
-8 4 -33 l-5 -38 22 43 c23 44 40 56 31 22 -5 -20 -4 -20 41 4 124 66 318 56
478 -24 48 -23 56 -25 48 -10 -14 26 -89 88 -135 112 -116 60 -290 84 -385 53z
m170 -35 c0 -4 -20 -11 -45 -15 -25 -3 -71 -15 -101 -25 -51 -18 -55 -18 -52
-2 5 30 67 53 136 51 34 -1 62 -5 62 -9z m-233 -28 c-27 -28 -36 -49 -17 -37
6 3 10 2 10 -4 0 -5 -4 -13 -10 -16 -5 -3 -10 0 -10 7 0 9 -3 9 -10 -2 -13
-21 -12 -3 1 23 16 31 40 57 52 57 6 0 -1 -13 -16 -28z"/>
<path d="M970 1951 c-121 -40 -190 -122 -190 -226 0 -59 22 -111 68 -159 103
-107 260 -116 362 -20 94 88 114 203 53 303 -43 69 -106 103 -196 107 -39 2
-83 0 -97 -5z m201 -48 c133 -68 152 -201 43 -307 -97 -94 -267 -84 -369 21
-65 67 -71 147 -14 216 51 62 128 95 225 96 47 1 72 -5 115 -26z"/>
<path d="M995 1830 c-44 -18 -70 -59 -70 -112 0 -44 4 -53 37 -84 30 -27 46
-34 78 -34 77 0 130 49 130 120 0 87 -91 145 -175 110z m60 -47 c-21 -50 -18
-66 16 -95 28 -24 31 -30 19 -38 -21 -13 -72 -12 -91 3 -20 15 -39 51 -39 72
0 24 55 75 80 75 17 0 20 -4 15 -17z m70 -43 c0 -18 -6 -26 -23 -28 -27 -4
-40 22 -22 44 19 22 45 13 45 -16z"/>
<path d="M1849 1947 c-69 -20 -111 -48 -146 -100 -106 -158 14 -367 213 -367
74 0 120 18 176 68 102 92 107 243 11 334 -61 59 -173 87 -254 65z m189 -51
c92 -46 133 -118 117 -203 -9 -50 -93 -133 -151 -151 -120 -36 -253 9 -301
102 -45 86 -35 148 33 213 78 76 199 91 302 39z"/>
<path d="M1841 1827 c-39 -19 -66 -64 -66 -107 0 -48 28 -88 78 -113 33 -17
42 -17 79 -5 73 23 110 111 74 176 -29 54 -110 78 -165 49z m64 -44 c-21 -48
-17 -71 13 -93 39 -29 32 -50 -17 -50 -43 1 -66 16 -81 55 -13 35 -6 59 27 85
33 26 68 27 58 3z m70 -43 c0 -18 -6 -26 -23 -28 -27 -4 -40 22 -22 44 19 22
45 13 45 -16z"/>
<path d="M1458 1619 c-4 -53 -15 -132 -25 -175 -25 -111 -24 -205 3 -241 22
-29 62 -56 104 -68 24 -8 24 -7 7 16 -9 13 -29 47 -44 74 -28 49 -28 53 -33
270 -4 196 -6 210 -12 124z"/>
<path d="M1412 945 c-62 -14 -218 -82 -209 -92 3 -2 39 1 80 7 97 16 307 8
365 -13 l44 -15 -6 26 c-10 41 -58 79 -115 91 -63 13 -79 13 -159 -4z"/>
<path d="M1389 771 c20 -13 125 -24 150 -16 43 13 7 25 -77 25 -56 0 -82 -4
-73 -9z"/>
</g>
</svg>
